<svg width="9" height="9" viewBox="0 0 9 9" fill="none" xmlns="http://www.w3.org/2000/svg">
<path fill-rule="evenodd" clip-rule="evenodd" d="M7.49793 0.710449H8.11512V1.32764V7.49951V8.1167H7.49793H4.41199C4.07113 8.1167 3.79481 7.84038 3.79481 7.49951C3.79481 7.15865 4.07113 6.88232 4.41199 6.88232H6.88074V1.94482H4.41199C4.07113 1.94482 3.79481 1.6685 3.79481 1.32764C3.79481 0.986773 4.07113 0.710449 4.41199 0.710449H7.49793ZM2.4707 5.12126C2.59122 5.24177 2.59122 5.43716 2.4707 5.55767C2.35019 5.67819 2.1548 5.67819 2.03428 5.55767L1.1085 4.63189L0.890295 4.41368L1.1085 4.19548L2.03428 3.26969C2.1548 3.14918 2.35019 3.14918 2.4707 3.26969C2.59122 3.39021 2.59122 3.5856 2.4707 3.70611L2.07172 4.10509H5.33843C5.50886 4.10509 5.64703 4.24325 5.64703 4.41368C5.64703 4.58412 5.50886 4.72228 5.33843 4.72228H2.07172L2.4707 5.12126Z" fill="white"/>
</svg>
