<svg width="16" height="17" viewBox="0 0 16 17" fill="none" xmlns="http://www.w3.org/2000/svg">
<mask id="path-1-inside-1_1241_11377" fill="white">
<path fill-rule="evenodd" clip-rule="evenodd" d="M0.116013 1.28252C0.376732 0.795645 0.982774 0.612312 1.46965 0.873032L4.4211 2.45354C4.70117 2.60351 4.89331 2.87764 4.93875 3.19206L5.22605 5.18001L15.006 5.18001C15.3224 5.18001 15.6202 5.32976 15.8088 5.58379C15.9975 5.83782 16.0548 6.16615 15.9633 6.46906L14.2453 12.1589C14.1178 12.581 13.7289 12.8698 13.288 12.8698L5.18248 12.8698C4.68545 12.8698 4.26385 12.5048 4.19276 12.0129L3.37046 6.32304L3.03158 3.97815L0.525497 2.63615C0.0386255 2.37543 -0.144707 1.76939 0.116013 1.28252ZM5.51509 7.18001L6.04835 10.8698L12.5453 10.8698L13.6595 7.18001H5.51509ZM6.98049 15.2492C6.98049 16.0793 6.31302 16.7523 5.48966 16.7523C4.6663 16.7523 3.99883 16.0793 3.99883 15.2492C3.99883 14.419 4.6663 13.746 5.48966 13.746C6.31302 13.746 6.98049 14.419 6.98049 15.2492ZM12.4234 16.7523C13.2468 16.7523 13.9142 16.0793 13.9142 15.2492C13.9142 14.419 13.2468 13.746 12.4234 13.746C11.6 13.746 10.9326 14.419 10.9326 15.2492C10.9326 16.0793 11.6 16.7523 12.4234 16.7523Z"/>
</mask>
<path fill-rule="evenodd" clip-rule="evenodd" d="M0.116013 1.28252C0.376732 0.795645 0.982774 0.612312 1.46965 0.873032L4.4211 2.45354C4.70117 2.60351 4.89331 2.87764 4.93875 3.19206L5.22605 5.18001L15.006 5.18001C15.3224 5.18001 15.6202 5.32976 15.8088 5.58379C15.9975 5.83782 16.0548 6.16615 15.9633 6.46906L14.2453 12.1589C14.1178 12.581 13.7289 12.8698 13.288 12.8698L5.18248 12.8698C4.68545 12.8698 4.26385 12.5048 4.19276 12.0129L3.37046 6.32304L3.03158 3.97815L0.525497 2.63615C0.0386255 2.37543 -0.144707 1.76939 0.116013 1.28252ZM5.51509 7.18001L6.04835 10.8698L12.5453 10.8698L13.6595 7.18001H5.51509ZM6.98049 15.2492C6.98049 16.0793 6.31302 16.7523 5.48966 16.7523C4.6663 16.7523 3.99883 16.0793 3.99883 15.2492C3.99883 14.419 4.6663 13.746 5.48966 13.746C6.31302 13.746 6.98049 14.419 6.98049 15.2492ZM12.4234 16.7523C13.2468 16.7523 13.9142 16.0793 13.9142 15.2492C13.9142 14.419 13.2468 13.746 12.4234 13.746C11.6 13.746 10.9326 14.419 10.9326 15.2492C10.9326 16.0793 11.6 16.7523 12.4234 16.7523Z" fill="white"/>
<path d="M1.46965 0.873032L1.94172 -0.00852688L1.46965 0.873032ZM0.116013 1.28252L-0.765546 0.810441L-0.765546 0.810442L0.116013 1.28252ZM4.4211 2.45354L3.94903 3.3351L3.94903 3.3351L4.4211 2.45354ZM4.93875 3.19206L5.92846 3.04902L5.92846 3.04902L4.93875 3.19206ZM5.22605 5.18001L4.23633 5.32304L4.36018 6.18001H5.22605L5.22605 5.18001ZM15.9633 6.46906L15.006 6.18001L15.006 6.18001L15.9633 6.46906ZM14.2453 12.1589L13.288 11.8698L13.288 11.8698L14.2453 12.1589ZM4.19276 12.0129L3.20304 12.1559L3.20304 12.1559L4.19276 12.0129ZM3.37046 6.32304L4.36018 6.18001L4.36018 6.18001L3.37046 6.32304ZM3.03158 3.97815L4.02129 3.83512L3.94903 3.3351L3.50365 3.09659L3.03158 3.97815ZM0.525497 2.63615L0.0534224 3.51771L0.0534225 3.51771L0.525497 2.63615ZM6.04835 10.8698L5.05863 11.0129L5.18248 11.8698H6.04835V10.8698ZM5.51509 7.18001V6.18001L4.36018 6.18001L4.52537 7.32304L5.51509 7.18001ZM12.5453 10.8698L12.5453 11.8698H13.288L13.5027 11.1589L12.5453 10.8698ZM13.6595 7.18001L14.6168 7.46906L15.006 6.18001H13.6595V7.18001ZM1.94172 -0.00852688C0.967978 -0.529966 -0.244107 -0.163301 -0.765546 0.810441L0.997571 1.75459L0.997571 1.75459L1.94172 -0.00852688ZM4.89318 1.57198L1.94172 -0.00852688L0.997571 1.75459L3.94903 3.3351L4.89318 1.57198ZM5.92846 3.04902C5.83758 2.42018 5.4533 1.87192 4.89318 1.57198L3.94903 3.3351L3.94903 3.3351L5.92846 3.04902ZM6.21576 5.03697L5.92846 3.04902L3.94903 3.3351L4.23633 5.32304L6.21576 5.03697ZM15.006 4.18001L5.22605 4.18001L5.22605 6.18001L15.006 6.18001V4.18001ZM16.6117 4.98758C16.2343 4.47952 15.6388 4.18001 15.006 4.18001V6.18001L15.006 6.18001L16.6117 4.98758ZM16.9206 6.75812C17.1036 6.15229 16.989 5.49564 16.6117 4.98758L15.006 6.18001L15.006 6.18001L16.9206 6.75812ZM15.2026 12.4479L16.9206 6.75812L15.006 6.18001L13.288 11.8698L15.2026 12.4479ZM13.288 13.8698C14.1699 13.8698 14.9477 13.2922 15.2026 12.4479L13.288 11.8698L13.288 11.8698V13.8698ZM5.18248 13.8698L13.288 13.8698V11.8698L5.18248 11.8698V13.8698ZM3.20304 12.1559C3.34523 13.1397 4.18842 13.8698 5.18248 13.8698V11.8698L5.18248 11.8698L3.20304 12.1559ZM2.38074 6.46608L3.20304 12.1559L5.18248 11.8698L4.36018 6.18001L2.38074 6.46608ZM2.04186 4.12119L2.38074 6.46608L4.36018 6.18001L4.02129 3.83512L2.04186 4.12119ZM0.0534225 3.51771L2.5595 4.85971L3.50365 3.09659L0.997571 1.75459L0.0534225 3.51771ZM-0.765546 0.810442C-1.28698 1.78418 -0.92032 2.99627 0.0534224 3.51771L0.997571 1.75459L0.997571 1.75459L-0.765546 0.810442ZM7.03806 10.7268L6.50481 7.03697L4.52537 7.32304L5.05863 11.0129L7.03806 10.7268ZM12.5453 9.86982L6.04835 9.86982V11.8698L12.5453 11.8698L12.5453 9.86982ZM12.7022 6.89095L11.588 10.5808L13.5027 11.1589L14.6168 7.46906L12.7022 6.89095ZM5.51509 8.18001H13.6595V6.18001H5.51509V8.18001ZM5.48966 17.7523C6.87304 17.7523 7.98049 16.6238 7.98049 15.2492H5.98049C5.98049 15.5348 5.753 15.7523 5.48966 15.7523L5.48966 17.7523ZM2.99883 15.2492C2.99883 16.6238 4.10627 17.7523 5.48966 17.7523L5.48966 15.7523C5.22632 15.7523 4.99883 15.5348 4.99883 15.2492H2.99883ZM5.48966 12.746C4.10627 12.746 2.99883 13.8745 2.99883 15.2492H4.99883C4.99883 14.9635 5.22632 14.746 5.48966 14.746V12.746ZM7.98049 15.2492C7.98049 13.8745 6.87304 12.746 5.48966 12.746V14.746C5.753 14.746 5.98049 14.9635 5.98049 15.2492H7.98049ZM12.9142 15.2492C12.9142 15.5348 12.6867 15.7523 12.4234 15.7523V17.7523C13.8068 17.7523 14.9142 16.6238 14.9142 15.2492H12.9142ZM12.4234 14.746C12.6867 14.746 12.9142 14.9635 12.9142 15.2492H14.9142C14.9142 13.8745 13.8068 12.746 12.4234 12.746V14.746ZM11.9326 15.2492C11.9326 14.9635 12.16 14.746 12.4234 14.746V12.746C11.04 12.746 9.93256 13.8745 9.93256 15.2492L11.9326 15.2492ZM12.4234 15.7523C12.16 15.7523 11.9326 15.5348 11.9326 15.2492L9.93256 15.2492C9.93256 16.6238 11.04 17.7523 12.4234 17.7523V15.7523Z" fill="white" mask="url(#path-1-inside-1_1241_11377)"/>
</svg>
