<svg width="16" height="17" viewBox="0 0 16 17" fill="none" xmlns="http://www.w3.org/2000/svg">
<path d="M14.9623 7.70533C14.9623 9.52471 13.9986 11.1938 12.4049 12.3095C12.0984 12.5241 11.9403 12.821 11.8565 13.0193C11.7669 13.2317 11.711 13.4569 11.6722 13.6548C11.6047 13.999 11.5638 14.4022 11.5289 14.7476C11.5243 14.7931 11.5198 14.8375 11.5153 14.8808C11.4909 15.1182 11.4676 15.3232 11.4413 15.4964C11.2185 15.3655 10.9585 15.1853 10.6532 14.9669C10.6065 14.9334 10.5586 14.899 10.5098 14.8639C10.186 14.6312 9.81981 14.3681 9.47462 14.1602C9.11765 13.9452 8.57553 13.6543 8 13.6543C4.01834 13.6543 1.03766 10.8633 1.03766 7.70533C1.03766 4.54738 4.01834 1.75641 8 1.75641C11.9817 1.75641 14.9623 4.54738 14.9623 7.70533Z" stroke="white" stroke-width="2.07531"/>
</svg>
