<svg width="16" height="16" viewBox="0 0 16 16" fill="none" xmlns="http://www.w3.org/2000/svg">
<g clip-path="url(#clip0_2_1746)">
<path fill-rule="evenodd" clip-rule="evenodd" d="M12.3162 1.94868C12.8402 1.77403 13.1233 1.20772 12.9487 0.683771C12.774 0.159828 12.2077 -0.123334 11.6838 0.0513125L2.68368 3.05131C2.15974 3.22596 1.87657 3.79228 2.05122 4.31622C2.08279 4.41094 2.12717 4.49779 2.18178 4.57549L3.36378 14.8195C3.44141 15.4923 4.01107 16 4.68832 16H11.3117C11.9889 16 12.5586 15.4923 12.6362 14.8195L13.8285 4.48616C13.9199 3.69448 13.3009 3 12.504 3H9.16224L12.3162 1.94868ZM4.24403 5L5.28249 14H7.49999V9.33282C7.49999 9.05668 7.72385 8.83282 7.99999 8.83282C8.27613 8.83282 8.49999 9.05668 8.49999 9.33282V14H10.7175L11.7559 5H4.24403Z" fill="white"/>
</g>
<defs>
<clipPath id="clip0_2_1746">
<rect width="16" height="16" fill="white"/>
</clipPath>
</defs>
</svg>
