<svg width="16" height="16" viewBox="0 0 16 16" fill="none" xmlns="http://www.w3.org/2000/svg">
<path d="M12.0981 8.44408C12.0981 9.44498 11.503 10.5665 10.5771 11.4828C9.6305 12.4195 8.59564 12.8917 7.99998 12.8917C7.40432 12.8917 6.36946 12.4195 5.42286 11.4828C4.49694 10.5665 3.90186 9.44498 3.90186 8.44408C3.90186 6.28838 5.70911 4.4917 7.99998 4.4917C10.2908 4.4917 12.0981 6.28838 12.0981 8.44408Z" stroke="white" stroke-width="2"/>
<path d="M14.5323 6.88746L14.3135 7.89031C14.2237 8.30207 14.5373 8.69149 14.9587 8.69149V8.69149C14.9815 8.69149 15 8.6728 14.9999 8.65C14.9769 4.91362 11.8517 1.8916 8 1.8916C4.15047 1.8916 1.0267 4.91015 1.00017 8.64356C0.999983 8.6699 1.02135 8.69149 1.04769 8.69149V8.69149C1.52701 8.69149 1.88763 8.25474 1.79693 7.78407L1.62414 6.88746" stroke="white" stroke-linecap="round" stroke-linejoin="round"/>
</svg>
