<svg width="12" height="12" viewBox="0 0 12 12" fill="none" xmlns="http://www.w3.org/2000/svg">
<path fill-rule="evenodd" clip-rule="evenodd" d="M11 0H12V1V11V12H11H6C5.44772 12 5 11.5523 5 11C5 10.4477 5.44772 10 6 10H10V2H6C5.44772 2 5 1.55228 5 1C5 0.447715 5.44772 0 6 0H11ZM5.64645 7.14645C5.45118 7.34171 5.45118 7.65829 5.64645 7.85355C5.84171 8.04882 6.15829 8.04882 6.35355 7.85355L7.85355 6.35355L8.20711 6L7.85355 5.64645L6.35355 4.14645C6.15829 3.95118 5.84171 3.95118 5.64645 4.14645C5.45118 4.34171 5.45118 4.65829 5.64645 4.85355L6.29289 5.5H1C0.723858 5.5 0.5 5.72386 0.5 6C0.5 6.27614 0.723858 6.5 1 6.5H6.29289L5.64645 7.14645Z" fill="white"/>
</svg>
