<svg width="8" height="8" viewBox="0 0 8 8" fill="none" xmlns="http://www.w3.org/2000/svg">
<path fill-rule="evenodd" clip-rule="evenodd" d="M6.60745 0H7.22464V0.617188V6.78906V7.40625H6.60745H3.52151C3.18065 7.40625 2.90433 7.12993 2.90433 6.78906C2.90433 6.4482 3.18065 6.17188 3.52151 6.17188H5.99026V1.23437H3.52151C3.18065 1.23437 2.90433 0.958051 2.90433 0.617188C2.90433 0.276324 3.18065 0 3.52151 0H6.60745ZM1.58022 4.41081C1.70074 4.53132 1.70074 4.72671 1.58022 4.84723C1.45971 4.96774 1.26432 4.96774 1.1438 4.84723L0.218023 3.92144L-0.000185609 3.70324L0.218023 3.48503L1.1438 2.55925C1.26432 2.43873 1.45971 2.43873 1.58022 2.55925C1.70074 2.67976 1.70074 2.87515 1.58022 2.99566L1.18124 3.39464H4.44795C4.61838 3.39464 4.75654 3.5328 4.75654 3.70324C4.75654 3.87367 4.61838 4.01183 4.44795 4.01183H1.18124L1.58022 4.41081Z" fill="white"/>
</svg>
