<svg width="18" height="15" viewBox="0 0 18 15" fill="none" xmlns="http://www.w3.org/2000/svg">
<path fill-rule="evenodd" clip-rule="evenodd" d="M4.97483 11H4.58786L4.22882 11.1443L2 12.0404V10V8V3C2 2.44772 2.44772 2 3 2H15C15.5523 2 16 2.44772 16 3V10C16 10.5523 15.5523 11 15 11H4.97483ZM0 15L2 14.196L4.97483 13H15C16.6569 13 18 11.6569 18 10V3C18 1.34315 16.6569 0 15 0H3C1.34315 0 0 1.34315 0 3V8V10V12.8444V15ZM5.25 5C4.55964 5 4 5.55964 4 6.25C4 6.94036 4.55964 7.5 5.25 7.5C5.94036 7.5 6.5 6.94036 6.5 6.25C6.5 5.55964 5.94036 5 5.25 5ZM9 5C8.30964 5 7.75 5.55964 7.75 6.25C7.75 6.94036 8.30964 7.5 9 7.5C9.69036 7.5 10.25 6.94036 10.25 6.25C10.25 5.55964 9.69036 5 9 5ZM11.5 6.25C11.5 5.55964 12.0596 5 12.75 5C13.4404 5 14 5.55964 14 6.25C14 6.94036 13.4404 7.5 12.75 7.5C12.0596 7.5 11.5 6.94036 11.5 6.25Z" fill="white"/>
</svg>
