<svg width="16" height="20" viewBox="0 0 16 20" fill="none" xmlns="http://www.w3.org/2000/svg">
<mask id="path-1-inside-1_1586_1969" fill="white">
<path fill-rule="evenodd" clip-rule="evenodd" d="M8 8C10.2091 8 12 6.20914 12 4C12 1.79086 10.2091 0 8 0C5.79086 0 4 1.79086 4 4C4 6.20914 5.79086 8 8 8ZM4.222 9.64296C2.01323 9.40001 0 11.0495 0 13.2716V15.013C0 17.4138 1.70281 19.5195 4.08881 19.7852C6.79887 20.0871 9.12767 20.0631 11.8302 19.7612C14.2499 19.491 16 17.3713 16 14.9366V13.2313C16 11.0227 14.0088 9.37413 11.8138 9.61958C9.11738 9.9211 6.85111 9.93214 4.222 9.64296Z"/>
</mask>
<path d="M4.222 9.64296L4.00333 11.631L4.00333 11.631L4.222 9.64296ZM4.08881 19.7852L4.31022 17.7975L4.08881 19.7852ZM11.8302 19.7612L12.0522 21.7489L12.0522 21.7489L11.8302 19.7612ZM11.8138 9.61958L11.5915 7.63196L11.5915 7.63196L11.8138 9.61958ZM10 4C10 5.10457 9.10457 6 8 6V10C11.3137 10 14 7.31371 14 4H10ZM8 2C9.10457 2 10 2.89543 10 4H14C14 0.686291 11.3137 -2 8 -2V2ZM6 4C6 2.89543 6.89543 2 8 2V-2C4.68629 -2 2 0.686291 2 4H6ZM8 6C6.89543 6 6 5.10457 6 4H2C2 7.31371 4.68629 10 8 10V6ZM2 13.2716C2 12.3518 2.8653 11.5058 4.00333 11.631L4.44066 7.65495C1.16117 7.29423 -2 9.74726 -2 13.2716H2ZM2 15.013V13.2716H-2V15.013H2ZM4.31022 17.7975C3.04194 17.6563 2 16.5043 2 15.013H-2C-2 18.3233 0.363678 21.3827 3.8674 21.7729L4.31022 17.7975ZM11.6082 17.7736C9.04044 18.0604 6.86088 18.0817 4.31022 17.7975L3.8674 21.7729C6.73687 22.0926 9.2149 22.0658 12.0522 21.7489L11.6082 17.7736ZM14 14.9366C14 16.4391 12.9318 17.6258 11.6082 17.7736L12.0522 21.7489C15.5679 21.3562 18 18.3035 18 14.9366H14ZM14 13.2313V14.9366H18V13.2313H14ZM12.0361 11.6072C13.1436 11.4833 14 12.3115 14 13.2313H18C18 9.73387 14.8739 7.26492 11.5915 7.63196L12.0361 11.6072ZM4.00333 11.631C6.78581 11.937 9.2001 11.9243 12.0361 11.6072L11.5915 7.63196C9.03465 7.91789 6.91642 7.92726 4.44066 7.65495L4.00333 11.631Z" fill="white" mask="url(#path-1-inside-1_1586_1969)"/>
</svg>
