<svg width="20" height="20" viewBox="0 0 20 20" fill="none" xmlns="http://www.w3.org/2000/svg">
<path fill-rule="evenodd" clip-rule="evenodd" d="M13 5C13 6.65685 11.6569 8 10 8C8.34315 8 7 6.65685 7 5C7 3.34315 8.34315 2 10 2C11.6569 2 13 3.34315 13 5ZM15 5C15 7.76142 12.7614 10 10 10C7.23858 10 5 7.76142 5 5C5 2.23858 7.23858 0 10 0C12.7614 0 15 2.23858 15 5ZM4 16C4 14.8954 4.89543 14 6 14H14C15.1046 14 16 14.8954 16 16V18H4V16ZM2 16C2 13.7909 3.79086 12 6 12H14C16.2091 12 18 13.7909 18 16V18C18 19.1046 17.1046 20 16 20H4C2.89543 20 2 19.1046 2 18V16Z" fill="white"/>
</svg>
