<svg width="100" height="100" viewBox="0 0 100 100" fill="none" xmlns="http://www.w3.org/2000/svg">
<rect width="100" height="100" fill="#152537"/>
<path fill-rule="evenodd" clip-rule="evenodd" d="M91.997 51.0037L91.497 50.9977L90.9971 50.9918C90.999 50.8281 91 50.6642 91 50.5C91 50.3358 90.999 50.1719 90.9971 50.0082L91.497 50.0023L91.997 49.9963C91.999 50.164 92 50.3319 92 50.5C92 50.6681 91.999 50.836 91.997 51.0037ZM91.7582 45.9939L91.2611 46.0476L90.764 46.1013C90.7288 45.7758 90.6898 45.4514 90.647 45.1283L91.1427 45.0626L91.6383 44.9969C91.6822 45.328 91.7222 45.6604 91.7582 45.9939ZM90.9197 41.0517L90.4327 41.1651L89.9457 41.2785C89.8717 40.9607 89.794 40.6444 89.7126 40.3296L90.1967 40.2044L90.6808 40.0792C90.7642 40.4019 90.8439 40.7261 90.9197 41.0517ZM89.4888 36.25L89.0192 36.4217L88.5496 36.5934C88.4373 36.2863 88.3214 35.981 88.202 35.6774L88.6673 35.4943L89.1325 35.3112C89.255 35.6224 89.3737 35.9353 89.4888 36.25ZM87.4846 31.6553L87.0393 31.8826L86.5939 32.11C86.4456 31.8194 86.2938 31.5308 86.1387 31.2443L86.5784 31.0063L87.0181 30.7682C87.177 31.0618 87.3326 31.3575 87.4846 31.6553ZM84.9401 27.338L84.5255 27.6174L84.1108 27.8968C83.9283 27.626 83.7427 27.3575 83.5539 27.0914L83.9616 26.8021L84.3694 26.5127C84.5629 26.7854 84.7531 27.0605 84.9401 27.338ZM81.8941 23.3575L81.516 23.6847L81.1379 24.0118C80.9244 23.7651 80.7079 23.5209 80.4886 23.2794L80.8587 22.9432L81.2288 22.6071C81.4535 22.8545 81.6753 23.1047 81.8941 23.3575ZM78.3929 19.7712L78.0568 20.1413L77.7206 20.5114C77.4791 20.2921 77.2349 20.0756 76.9882 19.8621L77.3153 19.484L77.6425 19.1059C77.8953 19.3247 78.1455 19.5465 78.3929 19.7712ZM74.4873 16.6306L74.1979 17.0383L73.9086 17.4461C73.6425 17.2573 73.374 17.0717 73.1032 16.8892L73.3826 16.4745L73.662 16.0599C73.9395 16.2469 74.2146 16.4371 74.4873 16.6306ZM70.2318 13.9819C69.9382 13.823 69.6425 13.6675 69.3447 13.5154L69.1174 13.9607L68.89 14.406C69.1806 14.5544 69.4692 14.7062 69.7557 14.8613L69.9937 14.4216L70.2318 13.9819ZM65.6888 11.8675L65.5057 12.3327L65.3226 12.798C65.0191 12.6786 64.7137 12.5627 64.4066 12.4504L64.5783 11.9808L64.75 11.5112C65.0647 11.6263 65.3776 11.745 65.6888 11.8675ZM60.9208 10.3192L60.7956 10.8033L60.6704 11.2874C60.3556 11.206 60.0393 11.1283 59.7215 11.0543L59.8349 10.5673L59.9483 10.0803C60.2739 10.1561 60.5981 10.2358 60.9208 10.3192ZM56.0031 9.36166L55.9374 9.85733L55.8718 10.353C55.5486 10.3102 55.2242 10.2712 54.8987 10.236L54.9524 9.73892L55.0061 9.24181C55.3396 9.27782 55.672 9.31779 56.0031 9.36166ZM51.0037 9.00299L50.9977 9.50296L50.9918 10.0029C50.8281 10.001 50.6642 10 50.5 10C50.3358 10 50.1719 10.001 50.0082 10.0029L50.0023 9.50296L49.9963 9.00299C50.164 9.001 50.3319 9 50.5 9C50.6681 9 50.836 9.001 51.0037 9.00299ZM45.9939 9.24181L46.0476 9.73892L46.1013 10.236C45.7758 10.2712 45.4514 10.3102 45.1283 10.353L45.0626 9.85732L44.9969 9.36166C45.328 9.31779 45.6604 9.27782 45.9939 9.24181ZM41.0517 10.0803L41.1651 10.5673L41.2785 11.0543C40.9607 11.1283 40.6444 11.206 40.3296 11.2874L40.2044 10.8033L40.0792 10.3192C40.4019 10.2358 40.7261 10.1561 41.0517 10.0803ZM36.25 11.5112L36.4217 11.9808L36.5934 12.4504C36.2863 12.5627 35.981 12.6786 35.6774 12.798L35.4943 12.3327L35.3112 11.8675C35.6224 11.745 35.9353 11.6263 36.25 11.5112ZM31.6553 13.5154L31.8826 13.9607L32.11 14.4061C31.8194 14.5544 31.5308 14.7062 31.2443 14.8613L31.0063 14.4216L30.7682 13.982C31.0618 13.823 31.3575 13.6675 31.6553 13.5154ZM27.338 16.0599L27.6174 16.4745L27.8968 16.8892C27.626 17.0717 27.3575 17.2573 27.0914 17.4461L26.8021 17.0384L26.5127 16.6306C26.7854 16.4371 27.0605 16.2469 27.338 16.0599ZM23.3575 19.1059L23.6847 19.484L24.0118 19.8621C23.7651 20.0756 23.5209 20.2921 23.2794 20.5114L22.9432 20.1413L22.6071 19.7712C22.8545 19.5465 23.1047 19.3247 23.3575 19.1059ZM19.7712 22.6071L20.1413 22.9432L20.5114 23.2794C20.2921 23.5209 20.0756 23.7651 19.8621 24.0118L19.484 23.6847L19.1059 23.3575C19.3247 23.1047 19.5465 22.8545 19.7712 22.6071ZM16.6306 26.5127L17.0383 26.8021L17.4461 27.0914C17.2573 27.3575 17.0717 27.626 16.8892 27.8968L16.4745 27.6174L16.0599 27.338C16.2469 27.0605 16.4371 26.7854 16.6306 26.5127ZM13.9819 30.7682L14.4216 31.0063L14.8613 31.2443C14.7062 31.5308 14.5544 31.8194 14.406 32.11L13.9607 31.8827L13.5154 31.6553C13.6675 31.3575 13.823 31.0618 13.9819 30.7682ZM11.8675 35.3112L12.3327 35.4943L12.798 35.6774C12.6786 35.9809 12.5627 36.2863 12.4504 36.5934L11.9808 36.4217L11.5112 36.25C11.6263 35.9353 11.745 35.6224 11.8675 35.3112ZM10.3192 40.0792L10.8033 40.2044L11.2874 40.3296C11.206 40.6444 11.1283 40.9607 11.0543 41.2785L10.5673 41.1651L10.0803 41.0517C10.1561 40.7261 10.2358 40.4019 10.3192 40.0792ZM9.36166 44.9969L9.85733 45.0626L10.353 45.1282C10.3102 45.4514 10.2712 45.7758 10.236 46.1013L9.73892 46.0476L9.24181 45.9939C9.27782 45.6604 9.31779 45.328 9.36166 44.9969ZM9.00299 49.9963C9.001 50.164 9 50.3319 9 50.5C9 50.6681 9.001 50.836 9.00299 51.0037L9.50296 50.9977L10.0029 50.9918C10.001 50.8281 10 50.6642 10 50.5C10 50.3358 10.001 50.1719 10.0029 50.0082L9.50296 50.0023L9.00299 49.9963ZM9.24181 55.0061L9.73892 54.9524L10.236 54.8987C10.2712 55.2242 10.3102 55.5486 10.353 55.8717L9.85732 55.9374L9.36166 56.0031C9.31779 55.672 9.27782 55.3396 9.24181 55.0061ZM10.0803 59.9483L10.5673 59.8349L11.0543 59.7215C11.1283 60.0393 11.206 60.3556 11.2874 60.6704L10.8033 60.7956L10.3192 60.9208C10.2358 60.5981 10.1561 60.2739 10.0803 59.9483ZM11.5112 64.75L11.9808 64.5783L12.4504 64.4066C12.5627 64.7137 12.6786 65.0191 12.798 65.3226L12.3327 65.5057L11.8675 65.6888C11.745 65.3776 11.6263 65.0647 11.5112 64.75ZM13.5154 69.3447C13.6675 69.6425 13.823 69.9382 13.982 70.2318L14.4216 69.9937L14.8613 69.7557C14.7062 69.4692 14.5544 69.1806 14.4061 68.89L13.9607 69.1174L13.5154 69.3447ZM16.0599 73.662C16.2469 73.9395 16.4371 74.2146 16.6306 74.4873L17.0384 74.198L17.4461 73.9086C17.2573 73.6425 17.0717 73.374 16.8892 73.1032L16.4745 73.3826L16.0599 73.662ZM19.1059 77.6425L19.484 77.3153L19.8621 76.9882C20.0756 77.2349 20.2921 77.4791 20.5114 77.7206L20.1413 78.0568L19.7712 78.3929C19.5465 78.1455 19.3247 77.8953 19.1059 77.6425ZM22.6071 81.2288L22.9432 80.8587L23.2794 80.4886C23.5209 80.7079 23.7651 80.9244 24.0118 81.1379L23.6847 81.516L23.3575 81.8941C23.1047 81.6753 22.8545 81.4535 22.6071 81.2288ZM26.5127 84.3694L26.8021 83.9617L27.0914 83.5539C27.3575 83.7427 27.626 83.9283 27.8968 84.1108L27.6174 84.5255L27.338 84.9401C27.0605 84.7531 26.7854 84.5629 26.5127 84.3694ZM30.7682 87.0181L31.0063 86.5784L31.2443 86.1387C31.5308 86.2938 31.8194 86.4456 32.11 86.5939L31.8827 87.0393L31.6553 87.4846C31.3575 87.3326 31.0618 87.177 30.7682 87.0181ZM35.3112 89.1325L35.4943 88.6673L35.6774 88.202C35.9809 88.3214 36.2863 88.4373 36.5934 88.5496L36.4217 89.0192L36.25 89.4888C35.9353 89.3737 35.6224 89.255 35.3112 89.1325ZM40.0792 90.6808L40.2044 90.1967L40.3296 89.7126C40.6444 89.794 40.9607 89.8717 41.2785 89.9457L41.1651 90.4327L41.0517 90.9197C40.7261 90.8439 40.4019 90.7642 40.0792 90.6808ZM44.9969 91.6383L45.0626 91.1427L45.1282 90.647C45.4514 90.6898 45.7758 90.7288 46.1013 90.764L46.0476 91.2611L45.9939 91.7582C45.6604 91.7222 45.328 91.6822 44.9969 91.6383ZM49.9963 91.997L50.0023 91.497L50.0082 90.9971C50.1719 90.999 50.3358 91 50.5 91C50.6642 91 50.8281 90.999 50.9918 90.9971L50.9977 91.497L51.0037 91.997C50.836 91.999 50.6681 92 50.5 92C50.3319 92 50.164 91.999 49.9963 91.997ZM55.0061 91.7582L54.9524 91.2611L54.8987 90.764C55.2242 90.7288 55.5486 90.6898 55.8717 90.647L55.9374 91.1427L56.0031 91.6383C55.672 91.6822 55.3396 91.7222 55.0061 91.7582ZM59.9483 90.9197L59.8349 90.4327L59.7215 89.9457C60.0393 89.8717 60.3556 89.794 60.6704 89.7126L60.7956 90.1967L60.9208 90.6808C60.5981 90.7642 60.2739 90.8439 59.9483 90.9197ZM64.75 89.4888L64.5783 89.0192L64.4066 88.5496C64.7137 88.4373 65.0191 88.3214 65.3226 88.202L65.5057 88.6673L65.6888 89.1325C65.3776 89.255 65.0647 89.3737 64.75 89.4888ZM69.3447 87.4846C69.6425 87.3326 69.9382 87.177 70.2318 87.0181L69.9937 86.5784L69.7557 86.1387C69.4692 86.2938 69.1806 86.4456 68.89 86.5939L69.1174 87.0393L69.3447 87.4846ZM73.662 84.9401L73.3826 84.5255L73.1032 84.1108C73.374 83.9283 73.6425 83.7427 73.9086 83.5539L74.198 83.9616L74.4873 84.3694C74.2146 84.5629 73.9395 84.7531 73.662 84.9401ZM77.6425 81.8941L77.3153 81.516L76.9882 81.1379C77.2349 80.9244 77.4791 80.7079 77.7206 80.4886L78.0568 80.8587L78.3929 81.2288C78.1455 81.4535 77.8953 81.6753 77.6425 81.8941ZM81.2288 78.3929C81.4535 78.1455 81.6753 77.8953 81.8941 77.6425L81.516 77.3153L81.1379 76.9882C80.9244 77.2349 80.7079 77.4791 80.4886 77.7206L80.8587 78.0568L81.2288 78.3929ZM84.3694 74.4873L83.9617 74.1979L83.5539 73.9086C83.7427 73.6425 83.9283 73.374 84.1108 73.1032L84.5255 73.3826L84.9401 73.662C84.7531 73.9395 84.5629 74.2146 84.3694 74.4873ZM87.0181 70.2318C87.177 69.9382 87.3326 69.6425 87.4846 69.3447L87.0393 69.1174L86.5939 68.89C86.4456 69.1806 86.2938 69.4692 86.1387 69.7557L86.5784 69.9937L87.0181 70.2318ZM89.1325 65.6888L88.6673 65.5057L88.202 65.3226C88.3214 65.0191 88.4373 64.7137 88.5496 64.4066L89.0192 64.5783L89.4888 64.75C89.3737 65.0647 89.255 65.3777 89.1325 65.6888ZM90.6808 60.9208L90.1967 60.7956L89.7126 60.6704C89.794 60.3556 89.8717 60.0393 89.9457 59.7215L90.4327 59.8349L90.9197 59.9483C90.8439 60.2739 90.7642 60.5981 90.6808 60.9208ZM91.6383 56.0031L91.1427 55.9374L90.647 55.8718C90.6898 55.5486 90.7288 55.2242 90.764 54.8987L91.2611 54.9524L91.7582 55.0061C91.7222 55.3396 91.6822 55.672 91.6383 56.0031ZM46 46C46 48.2091 47.7909 50 50 50C52.2091 50 54 48.2091 54 46C54 43.7909 52.2091 42 50 42C47.7909 42 46 43.7909 46 46ZM57 57C57 55.3431 55.6569 54 54 54H46C44.3431 54 43 55.3431 43 57V58H41V57C41 54.2386 43.2386 52 46 52H54C56.7614 52 59 54.2386 59 57V58H57V57Z" fill="white"/>
</svg>
