<svg width="10" height="10" viewBox="0 0 10 10" fill="none" xmlns="http://www.w3.org/2000/svg">
<path d="M4.90118 0.333742C4.9726 0.189034 5.17894 0.189034 5.25036 0.333742L6.55634 2.97994C6.5847 3.0374 6.63952 3.07723 6.70293 3.08644L9.62318 3.51078C9.78287 3.53399 9.84664 3.73023 9.73108 3.84287L7.61797 5.90265C7.57208 5.94738 7.55114 6.01182 7.56198 6.07498L8.06081 8.98343C8.08809 9.14248 7.92115 9.26377 7.77832 9.18867L5.16637 7.81549C5.10965 7.78567 5.04189 7.78567 4.98517 7.81549L2.37322 9.18867C2.23038 9.26377 2.06344 9.14248 2.09072 8.98343L2.58956 6.07498C2.60039 6.01182 2.57946 5.94738 2.53357 5.90265L0.420456 3.84287C0.3049 3.73023 0.368666 3.53399 0.52836 3.51078L3.44861 3.08644C3.51202 3.07723 3.56684 3.0374 3.5952 2.97994L4.90118 0.333742Z" fill="#FFC42E"/>
</svg>
