<svg width="18" height="19" viewBox="0 0 18 19" fill="none" xmlns="http://www.w3.org/2000/svg">
<path fill-rule="evenodd" clip-rule="evenodd" d="M9.34174 0.560206L9 0.435936L8.65826 0.560206L3.15826 2.56021L2.70413 2.72534L2.55132 3.18377L0.551316 9.18377L0.362854 9.74916L0.770462 10.1839L8.27046 18.1839L9 18.9621L9.72954 18.1839L17.2295 10.1839L17.6371 9.74916L17.4487 9.18377L15.4487 3.18377L15.2959 2.72534L14.8417 2.56021L9.34174 0.560206ZM3.15872 7.68612L4.29587 4.27465L8 2.9277V4.91968L3.15872 7.68612ZM3.27009 9.92598L9 16.0379L14.8778 9.76818L9.01667 6.64222L3.27009 9.92598ZM14.7585 7.43789L13.7041 4.27465L10 2.9277V4.9L14.7585 7.43789Z" fill="white"/>
</svg>
