<svg width="82" height="60" viewBox="0 0 82 60" fill="none" xmlns="http://www.w3.org/2000/svg">
<path fill-rule="evenodd" clip-rule="evenodd" d="M35.6166 28.9655C35.5917 28.8215 35.5074 28.7026 35.3933 28.6296C36.3089 25.9125 38.7177 24 41.4999 24C44.3188 24 46.7546 25.9635 47.6421 28.7381C47.5931 28.7991 47.5577 28.8725 47.5416 28.9546L47.3058 30.1553C47.1634 30.8806 47.7186 31.5554 48.4577 31.5554C48.7599 31.5554 49.0013 31.3092 48.9997 31.0105C48.9774 26.6186 45.6631 23 41.4999 23C37.3388 23 34.0257 26.6149 34 31.0037C33.9982 31.3064 34.2429 31.5554 34.5484 31.5554C35.3409 31.5554 35.942 30.8411 35.8065 30.0603L35.6166 28.9655ZM44.598 30.7804C44.598 31.6418 44.1231 32.6966 43.3007 33.6009C42.9063 34.0346 42.4871 34.3696 42.1163 34.5846C41.9329 34.6909 41.7793 34.7574 41.6626 34.7952C41.56 34.8284 41.5072 34.8327 41.4998 34.8332C41.4925 34.8327 41.4396 34.8284 41.3371 34.7952C41.2204 34.7574 41.0668 34.6909 40.8833 34.5846C40.5125 34.3696 40.0934 34.0346 39.6989 33.6009C38.8766 32.6966 38.4017 31.6418 38.4017 30.7804C38.4017 28.6994 39.9299 27.2778 41.4998 27.2778C43.0698 27.2778 44.598 28.6994 44.598 30.7804ZM46.598 30.7804C46.598 33.8194 43.4504 36.8333 41.4998 36.8333C39.5493 36.8333 36.4017 33.8194 36.4017 30.7804C36.4017 27.7414 38.6842 25.2778 41.4998 25.2778C44.3155 25.2778 46.598 27.7414 46.598 30.7804Z" fill="#2A293F"/>
</svg>
