<svg width="12" height="12" viewBox="0 0 12 12" fill="none" xmlns="http://www.w3.org/2000/svg">
<g clip-path="url(#clip0_2_1357)">
<path fill-rule="evenodd" clip-rule="evenodd" d="M9.70924 7.5C9.83689 7.18465 9.92549 6.84932 9.96905 6.5H6.5V7.5H9.70924ZM9.12269 8.5H6.5V9.96905C7.55812 9.83711 8.48789 9.29188 9.12269 8.5ZM5.5 7.5V6.5H2.03095C2.07451 6.84932 2.16311 7.18465 2.29076 7.5H5.5ZM2.87731 8.5H5.5V9.96905C4.44188 9.83711 3.51211 9.29188 2.87731 8.5ZM6.5 5.5H9.96905C9.92549 5.15068 9.83689 4.81535 9.70924 4.5H6.5V5.5ZM6.5 3.5H9.12269C8.48789 2.70812 7.55812 2.16289 6.5 2.03095V3.5ZM5.5 2.03095V3.5H2.87731C3.51211 2.70812 4.44188 2.16289 5.5 2.03095ZM2.03095 5.5C2.07451 5.15068 2.16311 4.81535 2.29076 4.5H5.5V5.5H2.03095ZM6 12C9.31371 12 12 9.31371 12 6C12 2.68629 9.31371 0 6 0C2.68629 0 0 2.68629 0 6C0 9.31371 2.68629 12 6 12Z" fill="white"/>
</g>
<defs>
<clipPath id="clip0_2_1357">
<rect width="12" height="12" fill="white"/>
</clipPath>
</defs>
</svg>
