<svg width="10" height="11" viewBox="0 0 10 11" fill="none" xmlns="http://www.w3.org/2000/svg">
<g clip-path="url(#clip0_291_9001)">
<mask id="path-1-inside-1_291_9001" fill="white">
<path fill-rule="evenodd" clip-rule="evenodd" d="M0.202302 0.840096C0.362953 0.539465 0.736896 0.425989 1.03753 0.58664L2.85913 1.56007C3.03217 1.65254 3.15094 1.82178 3.17906 2.01595L3.35624 3.2394H9.39247C9.58782 3.2394 9.77164 3.33188 9.88807 3.48875C10.0045 3.64562 10.0398 3.84835 9.98321 4.03533L8.92287 7.53967C8.84409 7.80003 8.60415 7.97812 8.33213 7.97812H3.32952C3.02282 7.97812 2.76266 7.75292 2.7187 7.44939L2.21119 3.94504L2.00215 2.50169L0.455758 1.67532C0.155127 1.51467 0.0416508 1.14073 0.202302 0.840096ZM3.53501 4.47377L3.86376 6.74374H7.87406L8.5609 4.47377H3.53501ZM4.43954 9.44203C4.43954 9.95333 4.02759 10.3678 3.51942 10.3678C3.01125 10.3678 2.5993 9.95333 2.5993 9.44203C2.5993 8.93074 3.01125 8.51625 3.51942 8.51625C4.02759 8.51625 4.43954 8.93074 4.43954 9.44203ZM7.79908 10.3678C8.30725 10.3678 8.71921 9.95333 8.71921 9.44203C8.71921 8.93074 8.30725 8.51625 7.79908 8.51625C7.29091 8.51625 6.87896 8.93074 6.87896 9.44203C6.87896 9.95333 7.29091 10.3678 7.79908 10.3678Z"/>
</mask>
<path fill-rule="evenodd" clip-rule="evenodd" d="M0.202302 0.840096C0.362953 0.539465 0.736896 0.425989 1.03753 0.58664L2.85913 1.56007C3.03217 1.65254 3.15094 1.82178 3.17906 2.01595L3.35624 3.2394H9.39247C9.58782 3.2394 9.77164 3.33188 9.88807 3.48875C10.0045 3.64562 10.0398 3.84835 9.98321 4.03533L8.92287 7.53967C8.84409 7.80003 8.60415 7.97812 8.33213 7.97812H3.32952C3.02282 7.97812 2.76266 7.75292 2.7187 7.44939L2.21119 3.94504L2.00215 2.50169L0.455758 1.67532C0.155127 1.51467 0.0416508 1.14073 0.202302 0.840096ZM3.53501 4.47377L3.86376 6.74374H7.87406L8.5609 4.47377H3.53501ZM4.43954 9.44203C4.43954 9.95333 4.02759 10.3678 3.51942 10.3678C3.01125 10.3678 2.5993 9.95333 2.5993 9.44203C2.5993 8.93074 3.01125 8.51625 3.51942 8.51625C4.02759 8.51625 4.43954 8.93074 4.43954 9.44203ZM7.79908 10.3678C8.30725 10.3678 8.71921 9.95333 8.71921 9.44203C8.71921 8.93074 8.30725 8.51625 7.79908 8.51625C7.29091 8.51625 6.87896 8.93074 6.87896 9.44203C6.87896 9.95333 7.29091 10.3678 7.79908 10.3678Z" fill="white"/>
<path d="M1.03753 0.58664L0.746642 1.13098L0.746642 1.13098L1.03753 0.58664ZM0.202302 0.840096L0.746642 1.13098L0.746642 1.13098L0.202302 0.840096ZM2.85913 1.56007L2.56825 2.10441L2.85913 1.56007ZM3.17906 2.01595L3.78988 1.92749V1.92749L3.17906 2.01595ZM3.35624 3.2394L2.74543 3.32786L2.822 3.85658H3.35624V3.2394ZM9.88807 3.48875L9.39247 3.85658V3.85658L9.88807 3.48875ZM9.98321 4.03533L10.5739 4.21407L10.5739 4.21407L9.98321 4.03533ZM8.92287 7.53967L8.33213 7.36093L8.33213 7.36093L8.92287 7.53967ZM2.7187 7.44939L2.10788 7.53785V7.53785L2.7187 7.44939ZM2.21119 3.94504L2.822 3.85658L2.21119 3.94504ZM2.00215 2.50169L2.61297 2.41322L2.56825 2.10441L2.29304 1.95734L2.00215 2.50169ZM0.455758 1.67532L0.746642 1.13098L0.746642 1.13098L0.455758 1.67532ZM3.86376 6.74374L3.25294 6.8322L3.32952 7.36093H3.86376V6.74374ZM3.53501 4.47377V3.85658H2.822L2.9242 4.56223L3.53501 4.47377ZM7.87406 6.74374V7.36093H8.33213L8.4648 6.92249L7.87406 6.74374ZM8.5609 4.47377L9.15164 4.65252L9.39247 3.85658H8.5609V4.47377ZM1.32841 0.0423002C0.72715 -0.279003 -0.0207357 -0.0520508 -0.342038 0.549211L0.746642 1.13098H0.746642L1.32841 0.0423002ZM3.15002 1.01573L1.32841 0.0423001L0.746642 1.13098L2.56825 2.10441L3.15002 1.01573ZM3.78988 1.92749C3.73363 1.53914 3.4961 1.20067 3.15002 1.01573L2.56825 2.10441H2.56825L3.78988 1.92749ZM3.96706 3.15094L3.78988 1.92749L2.56825 2.10441L2.74543 3.32786L3.96706 3.15094ZM9.39247 2.62221H3.35624V3.85658H9.39247V2.62221ZM10.3837 3.12092C10.1508 2.80718 9.78318 2.62221 9.39247 2.62221V3.85658L9.39247 3.85658L10.3837 3.12092ZM10.5739 4.21407C10.6871 3.84011 10.6165 3.43466 10.3837 3.12092L9.39247 3.85658L9.39247 3.85659L10.5739 4.21407ZM9.51361 7.71842L10.5739 4.21407L9.39247 3.85658L8.33213 7.36093L9.51361 7.71842ZM8.33213 8.5953C8.87617 8.5953 9.35605 8.23913 9.51361 7.71842L8.33213 7.36093L8.33213 7.36093V8.5953ZM3.32952 8.5953H8.33213V7.36093H3.32952V8.5953ZM2.10788 7.53785C2.1958 8.1449 2.71613 8.5953 3.32952 8.5953V7.36093L3.32951 7.36093L2.10788 7.53785ZM1.60037 4.03351L2.10788 7.53785L3.32952 7.36093L2.822 3.85658L1.60037 4.03351ZM1.39134 2.59015L1.60037 4.03351L2.822 3.85658L2.61297 2.41322L1.39134 2.59015ZM0.164873 2.21966L1.71127 3.04603L2.29304 1.95734L0.746642 1.13098L0.164873 2.21966ZM-0.342038 0.549211C-0.663341 1.15047 -0.436389 1.89836 0.164873 2.21966L0.746642 1.13098L0.746642 1.13098L-0.342038 0.549211ZM4.47457 6.65528L4.14583 4.38531L2.9242 4.56223L3.25294 6.8322L4.47457 6.65528ZM7.87406 6.12655H3.86376V7.36093H7.87406V6.12655ZM7.97017 4.29503L7.28332 6.565L8.4648 6.92249L9.15164 4.65252L7.97017 4.29503ZM3.53501 5.09096H8.5609V3.85658H3.53501V5.09096ZM3.51942 10.985C4.37202 10.985 5.05673 10.2906 5.05673 9.44203H3.82236C3.82236 9.61604 3.68317 9.75063 3.51942 9.75063V10.985ZM1.98211 9.44203C1.98211 10.2906 2.66683 10.985 3.51942 10.985V9.75063C3.35568 9.75063 3.21649 9.61604 3.21649 9.44203H1.98211ZM3.51942 7.89906C2.66683 7.89906 1.98211 8.59345 1.98211 9.44203H3.21649C3.21649 9.26803 3.35568 9.13344 3.51942 9.13344V7.89906ZM5.05673 9.44203C5.05673 8.59345 4.37202 7.89906 3.51942 7.89906V9.13344C3.68317 9.13344 3.82236 9.26803 3.82236 9.44203H5.05673ZM8.10202 9.44203C8.10202 9.61604 7.96283 9.75063 7.79908 9.75063V10.985C8.65168 10.985 9.33639 10.2906 9.33639 9.44203H8.10202ZM7.79908 9.13344C7.96283 9.13344 8.10202 9.26803 8.10202 9.44203H9.33639C9.33639 8.59345 8.65168 7.89906 7.79908 7.89906V9.13344ZM7.49615 9.44203C7.49615 9.26803 7.63534 9.13344 7.79908 9.13344V7.89906C6.94649 7.89906 6.26177 8.59345 6.26177 9.44203H7.49615ZM7.79908 9.75063C7.63534 9.75063 7.49615 9.61604 7.49615 9.44203H6.26177C6.26177 10.2906 6.94649 10.985 7.79908 10.985V9.75063Z" fill="white" mask="url(#path-1-inside-1_291_9001)"/>
</g>
<defs>
<clipPath id="clip0_291_9001">
<rect width="9.875" height="9.875" fill="white" transform="translate(0.130859 0.492432)"/>
</clipPath>
</defs>
</svg>
