<svg width="16" height="16" viewBox="0 0 16 16" fill="none" xmlns="http://www.w3.org/2000/svg">
<path d="M12.0986 8.44397C12.0986 9.44487 11.5035 10.5664 10.5776 11.4827C9.63099 12.4194 8.59613 12.8916 8.00047 12.8916C7.40481 12.8916 6.36995 12.4194 5.42335 11.4827C4.49743 10.5664 3.90234 9.44487 3.90234 8.44397C3.90234 6.28828 5.7096 4.49159 8.00047 4.49159C10.2913 4.49159 12.0986 6.28828 12.0986 8.44397Z" stroke="#231F20" stroke-width="2"/>
<path d="M14.5323 6.88746L14.3135 7.89031C14.2237 8.30207 14.5373 8.69149 14.9587 8.69149V8.69149C14.9815 8.69149 15 8.6728 14.9999 8.65C14.9769 4.91362 11.8517 1.8916 8 1.8916C4.15047 1.8916 1.0267 4.91015 1.00017 8.64356C0.999983 8.6699 1.02135 8.69149 1.04769 8.69149V8.69149C1.52701 8.69149 1.88763 8.25474 1.79693 7.78407L1.62414 6.88746" stroke="#231F20" stroke-linecap="round" stroke-linejoin="round"/>
</svg>
